<svg fill="none" height="20" viewBox="0 0 20 20" width="20" xmlns="http://www.w3.org/2000/svg"><path d="m7.00383 3.00001c.22465.00172.42057.15307.47898.37l3.04319 11.30329 2.4951-8.31697c.0617-.20555.2476-.34883.4621-.35605.2144-.00722.4096.12323.485.32416l1.3783 3.67556h2.1535c.2761 0 .5.2239.5.5s-.2239.5-.5.5h-2.5c-.2084 0-.395-.1293-.4682-.3244l-.9791-2.61113-2.5738 8.57923c-.0642.214-.2626.3594-.486.3562-.2234-.0031-.4176-.1542-.4757-.3699l-3.03151-11.25988-1.50493 5.26728c-.06133.2146-.25752.3626-.48076.3626h-2.5c-.27614 0-.5-.2239-.5-.5s.22386-.5.5-.5h2.12285l1.89639-6.63736c.06172-.21602.25993-.36434.48459-.36263z" fill="#212121"/></svg>